<svg width="75" height="68" viewBox="0 0 75 68" fill="none" xmlns="http://www.w3.org/2000/svg">
<rect width="75" height="68" fill="#100A0A"/>
<path d="M34.8789 20.0192C34.8789 13.0317 29.2144 7.36719 22.2269 7.36719V7.36719C15.2394 7.36719 9.57495 13.0317 9.57495 20.0192V68.0026H34.8789V20.0192Z" fill="white"/>
<path d="M37.6143 19.6772C37.6143 12.8786 43.1256 7.36719 49.9243 7.36719V7.36719C56.7229 7.36719 62.2343 12.8786 62.2343 19.6772V68.0026H37.6143V19.6772Z" fill="white"/>
<path d="M54.1415 61.2285L36.6126 49.5859L36.4746 67.9975H64.2861L54.1415 61.2285Z" fill="black"/>
<path d="M18.2282 61.0733L36.3318 49.5859L36.4744 67.752H7.75098L18.2282 61.0733Z" fill="black"/>
<rect x="7.75098" y="60.3906" width="56.535" height="7.61011" fill="#100A0A"/>
</svg>
